<?xml version="1.0" encoding="utf-8"?>
<svg version="1.1" xmlns="http://www.w3.org/2000/svg" xmlns:xlink="http://www.w3.org/1999/xlink" x="0px" y="0px" viewBox="0 0 1000 1000" enable-background="new 0 0 1000 1000" xml:space="preserve">
<metadata> Svg Vector Icons : http://www.sfont.cn </metadata>
<g><path d="M830.4,670.9c-51.8,0-97.7,24.8-126.8,63l-335-199.5c3.8-14.7,6-30,6-45.8c0-4.6-0.4-9.1-0.7-13.6l335.2-202c29.3,34.3,72.7,56,121.3,56c88.1,0,159.5-71.4,159.5-159.5C990,81.4,918.6,10,830.4,10c-88.1,0-159.5,71.4-159.5,159.5c0,17.5,2.9,34.2,8.1,50L346.7,391.9c-32.3-51.3-89.2-85.6-154.3-85.6C91.6,306.3,10,387.9,10,488.6c0,100.7,81.6,182.3,182.3,182.3c54,0,102.3-23.6,135.7-60.8l348.2,180.1c-3.3,12.9-5.3,26.3-5.3,40.3c0,88.1,71.4,159.5,159.5,159.5c88.1,0,159.5-71.4,159.5-159.5C990,742.3,918.6,670.9,830.4,670.9L830.4,670.9L830.4,670.9z"/></g>
</svg>