{
  "asset": {
    "version": "2.0",
    "generator": "GLTFExporter",
		  	  "sceneSize": {
			"width": 1233,
			"height": 564
		}
  },
  "scenes": [
    {
      "nodes": [
        4
      ],
      "name": "AuxScene",
	  "userData": {
	  	  "sceneSize": {
			"width": 1233,
			"height": 564
		}
	  }
    }
  ],
  "scene": 0,
  "nodes": [
    {
      "extras": {
        "type": "polygon",
        "points": [
          {
            "x": -588.7002094827388,
            "y": -257.82490926251637,
            "z": 0,
            "positionX": 312,
            "positionY": 606
          },
          {
            "x": 586.2447341564291,
            "y": -265.1913352414453,
            "z": 0,
            "positionX": 1269,
            "positionY": 612
          },
          {
            "x": 585.0169964932743,
            "y": -165.74458452590446,
            "z": 0,
            "positionX": 1268,
            "positionY": 531
          },
          {
            "x": 581.3337835038099,
            "y": 257.82490926251035,
            "z": 0,
            "positionX": 1265,
            "positionY": 186
          },
          {
            "x": 472.0651314830305,
            "y": 259.0526469256652,
            "z": 0,
            "positionX": 1176,
            "positionY": 185
          },
          {
            "x": 480.6592951251141,
            "y": -201.34897675739444,
            "z": 0,
            "positionX": 1183,
            "positionY": 560
          },
          {
            "x": -593.6111601353581,
            "y": -201.34897675739444,
            "z": 0,
            "positionX": 308,
            "positionY": 560
          }
        ],
        "height": 100,
        "z": 0,
        "radius": null,
        "uuid": "2BCDF287-A376-455E-9453-E440C8623609"
      },
      "mesh": 0
    },
    {
      "extras": {
        "type": "rect",
        "points": [
          {
            "x": 271.94389238879387,
            "y": 122.77376631547952,
            "z": 0,
            "positionX": 1013,
            "positionY": 296
          },
          {
            "x": 356.6577911464768,
            "y": 28.23796625255795,
            "z": 0,
            "positionX": 1082,
            "positionY": 373
          }
        ],
        "height": 100,
        "z": 0,
        "radius": null,
        "uuid": "80D01B1C-3249-4346-9AA2-8137D3864C0D"
      },
      "mesh": 1
    },
    {
      "extras": {
        "type": "polygon",
        "points": [
          {
            "x": 47.26790003146069,
            "y": -31.92117924202854,
            "z": 0,
            "positionX": 830,
            "positionY": 422
          },
          {
            "x": 89.01098057872478,
            "y": -63.842358484053946,
            "z": 0,
            "positionX": 864,
            "positionY": 448
          },
          {
            "x": 130.75406112598887,
            "y": -31.92117924202854,
            "z": 0,
            "positionX": 898,
            "positionY": 422
          },
          {
            "x": 129.52632346283409,
            "y": -34.376654568338154,
            "z": 0,
            "positionX": 897,
            "positionY": 424
          }
        ],
        "height": 100,
        "z": 0,
        "radius": null,
        "uuid": "690791F1-6D49-4F81-B133-1F89F16A7270"
      },
      "mesh": 2
    },
    {
      "extras": {
        "type": "polygon",
        "points": [
          {
            "x": -188.4577312942657,
            "y": -50.33724418935091,
            "z": 0,
            "positionX": 638,
            "positionY": 437
          },
          {
            "x": -150.39786373646615,
            "y": -50.33724418935091,
            "z": 0,
            "positionX": 669,
            "positionY": 437
          },
          {
            "x": -151.6256013996209,
            "y": -98.21901305238906,
            "z": 0,
            "positionX": 668,
            "positionY": 476
          },
          {
            "x": -152.8533390627758,
            "y": -94.53580006292458,
            "z": 0,
            "positionX": 667,
            "positionY": 473
          },
          {
            "x": -92.69419356818932,
            "y": -95.76353772607945,
            "z": 0,
            "positionX": 716,
            "positionY": 474
          },
          {
            "x": -91.46645590503455,
            "y": -52.79271951566052,
            "z": 0,
            "positionX": 717,
            "positionY": 439
          },
          {
            "x": -131.98179878914377,
            "y": 24.554753263093477,
            "z": 0,
            "positionX": 684,
            "positionY": 376
          }
        ],
        "height": 100,
        "z": 0,
        "radius": null,
        "uuid": "2DC49C06-61C4-4DFC-8EB3-EC5D1465A32B"
      },
      "mesh": 3
    },
    {
      "children": [
        0,
        1,
        2,
        3
      ]
    }
  ],
  "bufferViews": [
    {
      "buffer": 0,
      "byteOffset": 0,
      "byteLength": 3888,
      "target": 34962,
      "byteStride": 12
    },
    {
      "buffer": 0,
      "byteOffset": 3888,
      "byteLength": 2592,
      "target": 34962,
      "byteStride": 8
    },
    {
      "buffer": 0,
      "byteOffset": 6480,
      "byteLength": 3888,
      "target": 34962,
      "byteStride": 12
    },
    {
      "buffer": 0,
      "byteOffset": 10368,
      "byteLength": 2160,
      "target": 34962,
      "byteStride": 12
    },
    {
      "buffer": 0,
      "byteOffset": 12528,
      "byteLength": 1440,
      "target": 34962,
      "byteStride": 8
    },
    {
      "buffer": 0,
      "byteOffset": 13968,
      "byteLength": 2160,
      "target": 34962,
      "byteStride": 12
    },
    {
      "buffer": 0,
      "byteOffset": 16128,
      "byteLength": 2088,
      "target": 34962,
      "byteStride": 12
    },
    {
      "buffer": 0,
      "byteOffset": 18216,
      "byteLength": 1392,
      "target": 34962,
      "byteStride": 8
    },
    {
      "buffer": 0,
      "byteOffset": 19608,
      "byteLength": 2088,
      "target": 34962,
      "byteStride": 12
    },
    {
      "buffer": 0,
      "byteOffset": 21696,
      "byteLength": 3816,
      "target": 34962,
      "byteStride": 12
    },
    {
      "buffer": 0,
      "byteOffset": 25512,
      "byteLength": 2544,
      "target": 34962,
      "byteStride": 8
    },
    {
      "buffer": 0,
      "byteOffset": 28056,
      "byteLength": 3816,
      "target": 34962,
      "byteStride": 12
    }
  ],
  "buffers": [
    {
      "byteLength": 31872,
      "uri": "data:application/octet-stream;base64,"
    }
  ],
  "accessors": [
    {
      "bufferView": 0,
      "componentType": 5126,
      "count": 324,
      "max": [
        590.2568969726562,
        263.0377502441406,
        111
      ],
      "min": [
        -597.7808227539062,
        -269.1791687011719,
        -6
      ],
      "type": "VEC3"
    },
    {
      "bufferView": 1,
      "componentType": 5126,
      "count": 324,
      "max": [
        586.2447509765625,
        259.0526428222656
      ],
      "min": [
        -595.6959838867188,
        -265.19134521484375
      ],
      "type": "VEC2"
    },
    {
      "bufferView": 2,
      "componentType": 5126,
      "count": 324,
      "max": [
        0.9999622106552124,
        1,
        1
      ],
      "min": [
        -0.9998267292976379,
        -0.9999805688858032,
        -1
      ],
      "type": "VEC3"
    },
    {
      "bufferView": 3,
      "componentType": 5126,
      "count": 180,
      "max": [
        360.6578063964844,
        126.77376556396484,
        111
      ],
      "min": [
        267.9438781738281,
        24.237966537475586,
        -6
      ],
      "type": "VEC3"
    },
    {
      "bufferView": 4,
      "componentType": 5126,
      "count": 180,
      "max": [
        360.6578063964844,
        122.77376556396484
      ],
      "min": [
        24.237966537475586,
        -110
      ],
      "type": "VEC2"
    },
    {
      "bufferView": 5,
      "componentType": 5126,
      "count": 180,
      "max": [
        1,
        1,
        1
      ],
      "min": [
        -1,
        -1,
        -1
      ],
      "type": "VEC3"
    },
    {
      "bufferView": 6,
      "componentType": 5126,
      "count": 174,
      "max": [
        130.75405883789062,
        -30.027524948120117,
        111
      ],
      "min": [
        41.937416076660156,
        -68.87787628173828,
        -6
      ],
      "type": "VEC3"
    },
    {
      "bufferView": 7,
      "componentType": 5126,
      "count": 174,
      "max": [
        129.5263214111328,
        7
      ],
      "min": [
        -68.87787628173828,
        -110
      ],
      "type": "VEC2"
    },
    {
      "bufferView": 8,
      "componentType": 5126,
      "count": 174,
      "max": [
        0.9999523758888245,
        0.9999948143959045,
        1
      ],
      "min": [
        -0.7010219693183899,
        -0.771255373954773,
        -1
      ],
      "type": "VEC3"
    },
    {
      "bufferView": 9,
      "componentType": 5126,
      "count": 318,
      "max": [
        -87.43824005126953,
        30.192691802978516,
        111
      ],
      "min": [
        -193.5206756591797,
        -99.84365844726562,
        -6
      ],
      "type": "VEC3"
    },
    {
      "bufferView": 10,
      "componentType": 5126,
      "count": 318,
      "max": [
        30.192691802978516,
        24.554752349853516
      ],
      "min": [
        -190.9892120361328,
        -110
      ],
      "type": "VEC2"
    },
    {
      "bufferView": 11,
      "componentType": 5126,
      "count": 318,
      "max": [
        0.9995920658111572,
        0.5982155799865723,
        1
      ],
      "min": [
        -0.9988523721694946,
        -0.9994612336158752,
        -1
      ],
      "type": "VEC3"
    }
  ],
  "materials": [
    {
      "pbrMetallicRoughness": {
        "baseColorFactor": [
          0.4117647058823529,
          0.4117647058823529,
          0.4117647058823529,
          1
        ],
        "metallicFactor": 0.5,
        "roughnessFactor": 0.5
      }
    }
  ],
  "meshes": [
    {
      "primitives": [
        {
          "mode": 4,
          "attributes": {
            "POSITION": 0,
            "TEXCOORD_0": 1,
            "NORMAL": 2
          },
          "material": 0
        }
      ]
    },
    {
      "primitives": [
        {
          "mode": 4,
          "attributes": {
            "POSITION": 3,
            "TEXCOORD_0": 4,
            "NORMAL": 5
          },
          "material": 0
        }
      ]
    },
    {
      "primitives": [
        {
          "mode": 4,
          "attributes": {
            "POSITION": 6,
            "TEXCOORD_0": 7,
            "NORMAL": 8
          },
          "material": 0
        }
      ]
    },
    {
      "primitives": [
        {
          "mode": 4,
          "attributes": {
            "POSITION": 9,
            "TEXCOORD_0": 10,
            "NORMAL": 11
          },
          "material": 0
        }
      ]
    }
  ]
}